<?xml version="1.0" encoding="utf-8"?>
<!-- Generator: Adobe Illustrator 16.0.2, SVG Export Plug-In . SVG Version: 6.00 Build 0)  -->
<!DOCTYPE svg PUBLIC "-//W3C//DTD SVG 1.1//EN" "http://www.w3.org/Graphics/SVG/1.1/DTD/svg11.dtd">
<svg version="1.1" id="fb414a8b-d0ff-4841-818a-532ec941ba8d"
	 xmlns="http://www.w3.org/2000/svg" xmlns:xlink="http://www.w3.org/1999/xlink" x="0px" y="0px" width="583.904px" height="652px"
	 viewBox="0 0 583.904 652" enable-background="new 0 0 583.904 652" xml:space="preserve">
<title>modern professional</title>
<circle opacity="0.4" fill="#FFBA00" enable-background="new    " cx="137.032" cy="553.164" r="14.92"/>
<circle opacity="0.4" fill="#FFBA00" enable-background="new    " cx="109.418" cy="560.29" r="10.466"/>
<path fill="#FFBA00" d="M531.002,349.262c29.213-73.645,22.6-156.676-17.901-224.768L105,181l391.09-81.506
	C447.863,36.708,373.17-0.065,294,0C153.167,0,39,114.167,39,255c0.003,11.64,0.796,23.265,2.374,34.797L531.002,349.262z"/>
<path fill="#FFBA00" d="M56.044,346.811C92.902,442.274,185.536,510,294,510c101.778,0,189.617-59.634,230.515-145.861
	L56.044,346.811z"/>
<circle fill="#FFBA00" cx="538" cy="252" r="12"/>
<path fill="#3F3D56" d="M268,193c0,0,33-14.379,48.5,0.811C332,209,275,204,268,193z"/>
<path fill="#2F2E41" d="M324.982,124.805c-11.091-18.738-33.03-19.612-33.03-19.612s-21.38-2.734-35.095,25.805
	c-12.783,26.6-30.426,52.284-2.84,58.511L259,174l3.086,16.663c3.928,0.283,7.868,0.35,11.803,0.202
	c29.542-0.954,57.677,0.279,56.771-10.322C329.455,166.451,335.653,142.835,324.982,124.805z"/>
<ellipse fill="#FFFFFF" cx="294.5" cy="398" rx="56" ry="13"/>
<rect x="285.443" y="559.471" transform="matrix(0.9973 -0.0737 0.0737 0.9973 -40.4609 24.5595)" fill="#FFFFFF" width="54.149" height="2.001"/>
<rect x="258.483" y="545.617" transform="matrix(0.4822 -0.8761 0.8761 0.4822 -353.6309 515.7401)" fill="#FFFFFF" width="2" height="22.825"/>
<rect x="288.5" y="543.5" fill="#FFFFFF" width="18" height="2"/>
<polygon fill="#FFFFFF" points="241.498,650.568 239.502,650.432 254.502,418.432 256.498,418.568 "/>
<polygon fill="#FFFFFF" points="315.501,650.549 305.501,422.549 307.499,422.451 317.499,650.451 "/>
<rect x="343.029" y="420.116" transform="matrix(0.9966 -0.082 0.082 0.9966 -42.7706 30.0274)" fill="#FFFFFF" width="2" height="230.775"/>
<path fill="#FFB8B8" d="M340.5,464.5c0,0-14,26-23,26s-8,17-6,21s7,13-1,26c-2.794,4.541-2.295,9.691-0.461,14.473
	c5.138,13.396,25.124,9.337,24.486-4.996c-0.008-0.156-0.017-0.315-0.025-0.477c-1-16,7-41,15-47s15-22,15-22L340.5,464.5z"/>
<path fill="#FFB8B8" d="M244.5,458.5c0,0,14,26,23,26s8,17,6,21s-7,13,1,26c2.794,4.541,2.294,9.691,0.461,14.473
	c-5.138,13.396-25.124,9.337-24.486-4.996c0.007-0.156,0.016-0.315,0.025-0.477c1-16-7-41-15-47s-15-22-15-22L244.5,458.5z"/>
<path fill="#2F2E41" d="M255.5,330.5l-6,13c0,0-88,29-80,63s47,87,53,85s38-8,39-25s-23-47-23-47l33-30l48.021-1l40.979,31
	c0,0-43,38-24,53s47,25,51,19s49-95,42-103s-78-38-78-38l-19-27l-74-4L255.5,330.5z"/>
<path fill="#FFB8B8" d="M273.5,165.5c0,0,5,33-5,37s20,21,20,21h17l11-23c0,0-10-18-4-35S273.5,165.5,273.5,165.5z"/>
<path opacity="0.1" enable-background="new    " d="M273.5,165.5c0,0,5,33-5,37s20,21,20,21h17l11-23c0,0-10-18-4-35
	S273.5,165.5,273.5,165.5z"/>
<path fill="#D0CDE1" d="M266.5,193.5c0,0,11,12,13,14s11,13,30-3s21,3,21,3v120c0,0-16-7-29,0s-40-2-40-2l-5-124L266.5,193.5z"/>
<path fill="#3F3D56" d="M273.845,193.5c0,0-9.345-4-17.345,0s-36,24-34,33s28,72,10,102s-21,38-21,38l44-23c0,0,34-21,31-34
	S273.845,193.5,273.845,193.5z"/>
<path fill="#3F3D56" d="M313.512,193.5c0,0,20.988,2,21.988,4S367,208,365,217s-29.5,89.5-17.5,104.5s32,36,25,38s-19-3-31,0
	s-40-22-37-49S304.522,200.5,313.512,193.5z"/>
<path fill="#FFB8B8" d="M263.5,384.5v10c0,0-5,23,11,22s6-28,6-28l-1-9L263.5,384.5z"/>
<path fill="#FFB8B8" d="M308.5,385.5c0,0-11,23,0,25s19-13,19-17S308.5,385.5,308.5,385.5z"/>
<polygon fill="#FFFFFF" points="272.5,650.524 270.5,650.476 276.5,420.476 278.5,420.524 "/>
<ellipse fill="#FFB8B8" cx="323" cy="152" rx="2" ry="4"/>
<ellipse fill="#FFB8B8" cx="264" cy="152" rx="2" ry="4"/>
<path fill="#3F3D56" d="M340.5,206.5c0,0,25,0,24,10s-34,182-34,182s-14-13-26-10L340.5,206.5z"/>
<path fill="#3F3D56" d="M243.5,209.5c0,0-25,5-25,20s36,159,41,159s24-3,24-8S243.5,209.5,243.5,209.5z"/>
<path opacity="0.2" enable-background="new    " d="M249,239l22.5,87.991C271.5,326.991,261,250,249,239z"/>
<path opacity="0.2" enable-background="new    " d="M336.517,226.636L313.761,341.68
	C313.761,341.68,321.034,233.272,336.517,226.636z"/>
<circle fill="#FFB8B8" cx="293.5" cy="152.5" r="29"/>
<polygon fill="#2F2E41" points="320.079,122.998 298.403,111.644 268.47,116.289 262.277,143.642 277.693,143.049 282,133 
	282,142.884 289.114,142.61 293.242,126.611 295.823,143.642 321.112,143.126 "/>
<rect x="10" y="650" fill="#FFFFFF" width="546" height="2"/>
<path fill="#FFFFFF" d="M464.583,650.02l-2-0.038c0.773-22.237,3.146-44.392,7.1-66.287c8.648-46.881,23.029-77.67,42.743-91.513
	l1.148,1.638C467.522,526.152,464.606,648.784,464.583,650.02z"/>
<path fill="#FFFFFF" d="M489.583,649.541l-2-0.039c0.043-2.215,1.293-54.414,21.843-68.842l1.148,1.637
	C490.854,596.143,489.593,649.009,489.583,649.541z"/>
<circle fill="#FFBA00" cx="525" cy="483" r="10"/>
<circle fill="#FFBA00" cx="520" cy="570" r="10"/>
<path fill="#FFFFFF" d="M484.922,499.994c1.879,12.005-3.02,22.741-3.02,22.741s-7.945-8.727-9.824-20.729
	c-1.879-12.005,3.019-22.741,3.019-22.741S483.042,487.99,484.922,499.994z"/>
<path fill="#FFFFFF" d="M517.609,529.148c-11.493,3.941-22.919,0.988-22.919,0.988s7.208-9.344,18.699-13.286
	c11.493-3.941,22.919-0.988,22.919-0.988S529.102,525.206,517.609,529.148z"/>
<path fill="#FFFFFF" d="M517.979,605.31c-5.201,1.635-10.74,1.873-16.063,0.693c6.904-8.79,18.326-12.708,29.172-10.006
	C527.607,600.195,523.088,603.406,517.979,605.31z"/>
</svg>
